<svg version="1.1" id="Layer_1" xmlns="http://www.w3.org/2000/svg" xmlns:xlink="http://www.w3.org/1999/xlink" x="0px" y="0px"
	 width="100%" viewBox="0 0 500 500" enable-background="new 0 0 500 500" xml:space="preserve">
<path fill="#8E26C9" opacity="1.000000" stroke="none" 
	d="
M321.000000,501.000000 
	C214.000031,501.000000 107.500053,501.000000 1.000057,501.000000 
	C1.000038,334.333405 1.000038,167.666794 1.000019,1.000147 
	C167.666565,1.000098 334.333130,1.000098 500.999756,1.000049 
	C500.999847,167.666519 500.999847,334.333038 500.999939,500.999786 
	C441.166656,501.000000 381.333344,501.000000 321.000000,501.000000 
M258.756287,77.865822 
	C253.448959,77.868431 248.141068,77.821487 242.834396,77.882233 
	C219.790054,78.145973 198.044968,83.959900 177.361313,93.785599 
	C138.858322,112.076294 110.623299,140.695389 92.841385,179.409500 
	C81.619225,203.842010 76.773483,229.556198 77.698692,256.536774 
	C78.263412,273.004761 80.772224,288.995850 85.807999,304.591888 
	C97.738266,341.540466 120.101608,370.895721 151.595779,393.298767 
	C181.582230,414.629211 215.335632,424.590454 251.945709,424.664612 
	C272.225769,424.705688 291.950439,420.987305 311.057922,413.880707 
	C346.595490,400.663269 374.936646,378.195984 395.793121,346.803223 
	C421.788086,307.676056 429.966736,264.315826 421.519073,218.384689 
	C413.614868,175.408417 391.540680,140.365128 356.967651,113.583351 
	C328.402802,91.455765 296.053375,79.072533 258.756287,77.865822 
z"/>
<path fill="#48106F" opacity="1.000000" stroke="none" 
	d="
M259.228149,77.874451 
	C296.053375,79.072533 328.402802,91.455765 356.967651,113.583351 
	C391.540680,140.365128 413.614868,175.408417 421.519073,218.384689 
	C429.966736,264.315826 421.788086,307.676056 395.793121,346.803223 
	C374.936646,378.195984 346.595490,400.663269 311.057922,413.880707 
	C291.950439,420.987305 272.225769,424.705688 251.945709,424.664612 
	C215.335632,424.590454 181.582230,414.629211 151.595779,393.298767 
	C120.101608,370.895721 97.738266,341.540466 85.807999,304.591888 
	C80.772224,288.995850 78.263412,273.004761 77.698692,256.536774 
	C76.773483,229.556198 81.619225,203.842010 92.841385,179.409500 
	C110.623299,140.695389 138.858322,112.076294 177.361313,93.785599 
	C198.044968,83.959900 219.790054,78.145973 242.834396,77.882233 
	C248.141068,77.821487 253.448959,77.868431 259.228149,77.874451 
M227.059616,265.448151 
	C236.363281,274.452545 240.686600,285.214294 238.552094,298.218872 
	C237.475403,304.778595 240.231766,310.044525 245.435455,311.196198 
	C251.784943,312.601471 257.435974,309.031677 258.482788,302.095612 
	C259.292694,296.729126 259.516602,291.145020 259.045776,285.740845 
	C258.014008,273.898193 252.956635,263.589325 245.295822,254.641571 
	C249.366730,250.098236 253.178207,245.844437 257.070892,241.500015 
	C265.196045,250.061996 274.450378,255.269669 285.353668,257.486267 
	C293.585846,259.159882 299.234192,254.104523 298.144073,245.887009 
	C297.444183,240.610840 293.442047,238.444061 288.903992,237.406952 
	C280.553864,235.498642 274.294281,230.795105 269.031158,224.201355 
	C260.265747,213.219864 244.740570,212.438324 234.874954,222.417618 
	C231.269287,226.064850 228.277588,230.315979 224.702621,233.997208 
	C215.813431,243.150757 216.057495,256.313202 227.059616,265.448151 
M215.343536,280.808990 
	C219.498444,277.444275 223.653351,274.079529 227.883484,270.653870 
	C216.169556,259.682068 200.546143,257.108307 187.130905,263.413361 
	C170.385468,271.283478 163.958359,290.791595 173.378998,305.154236 
	C184.169678,321.605621 207.709000,325.811768 223.398834,313.917572 
	C225.355942,312.433899 227.697952,310.011688 227.861389,307.871613 
	C228.416138,300.607544 228.073273,293.274902 228.073273,285.747925 
	C218.142838,285.747925 208.613022,285.747925 199.016495,285.747925 
	C199.016495,289.894897 199.016495,293.674805 199.016495,297.909302 
	C202.865067,297.909302 206.470215,297.909302 211.844940,297.909302 
	C210.232941,300.665558 209.662384,303.061523 208.208145,303.872101 
	C202.992096,306.779541 195.277435,304.825745 190.973984,300.016205 
	C186.717438,295.259125 186.019073,288.847351 189.054459,283.432373 
	C193.310043,275.840668 204.687668,271.439270 215.343536,280.808990 
M320.532928,272.009338 
	C311.407379,261.914642 300.065674,257.897369 286.859833,261.009644 
	C262.920776,266.651489 255.563858,291.533722 267.856354,307.691742 
	C278.148712,321.220642 299.013306,324.736176 313.865417,314.646973 
	C326.401733,306.131012 333.030945,288.147858 320.532928,272.009338 
M221.998856,232.510468 
	C225.414078,228.236526 228.915604,224.028152 232.223694,219.672836 
	C236.849915,213.582123 236.319870,207.412781 230.550827,202.458237 
	C224.380280,197.158859 218.064453,192.017960 211.645767,187.021484 
	C206.050659,182.666077 199.455795,183.139587 195.064529,188.213699 
	C189.751480,194.352936 184.541656,200.595078 179.565475,207.008636 
	C174.281845,213.818497 175.186356,220.204605 181.888824,225.710800 
	C187.790329,230.559006 193.631134,235.496887 199.757858,240.046219 
	C201.752991,241.527695 204.504242,242.387985 207.014114,242.704605 
	C214.484024,243.646927 217.543442,237.578384 221.998856,232.510468 
M277.633698,184.617233 
	C268.634155,180.678802 259.096771,183.815308 255.134415,192.016464 
	C251.468048,199.604980 254.687759,209.366776 262.199707,213.437653 
	C269.618225,217.457870 279.475220,215.099548 283.640045,208.308014 
	C288.895874,199.737381 286.821503,190.653671 277.633698,184.617233 
z"/>
<path fill="#FCFBFD" opacity="1.000000" stroke="none" 
	d="
M226.797241,265.208679 
	C216.057495,256.313202 215.813431,243.150757 224.702621,233.997208 
	C228.277588,230.315979 231.269287,226.064850 234.874954,222.417618 
	C244.740570,212.438324 260.265747,213.219864 269.031158,224.201355 
	C274.294281,230.795105 280.553864,235.498642 288.903992,237.406952 
	C293.442047,238.444061 297.444183,240.610840 298.144073,245.887009 
	C299.234192,254.104523 293.585846,259.159882 285.353668,257.486267 
	C274.450378,255.269669 265.196045,250.061996 257.070892,241.500015 
	C253.178207,245.844437 249.366730,250.098236 245.295822,254.641571 
	C252.956635,263.589325 258.014008,273.898193 259.045776,285.740845 
	C259.516602,291.145020 259.292694,296.729126 258.482788,302.095612 
	C257.435974,309.031677 251.784943,312.601471 245.435455,311.196198 
	C240.231766,310.044525 237.475403,304.778595 238.552094,298.218872 
	C240.686600,285.214294 236.363281,274.452545 226.797241,265.208679 
z"/>
<path fill="#FAF9FB" opacity="1.000000" stroke="none" 
	d="
M214.981857,280.798828 
	C204.687668,271.439270 193.310043,275.840668 189.054459,283.432373 
	C186.019073,288.847351 186.717438,295.259125 190.973984,300.016205 
	C195.277435,304.825745 202.992096,306.779541 208.208145,303.872101 
	C209.662384,303.061523 210.232941,300.665558 211.844940,297.909302 
	C206.470215,297.909302 202.865067,297.909302 199.016495,297.909302 
	C199.016495,293.674805 199.016495,289.894897 199.016495,285.747925 
	C208.613022,285.747925 218.142838,285.747925 228.073273,285.747925 
	C228.073273,293.274902 228.416138,300.607544 227.861389,307.871613 
	C227.697952,310.011688 225.355942,312.433899 223.398834,313.917572 
	C207.709000,325.811768 184.169678,321.605621 173.378998,305.154236 
	C163.958359,290.791595 170.385468,271.283478 187.130905,263.413361 
	C200.546143,257.108307 216.169556,259.682068 227.883484,270.653870 
	C223.653351,274.079529 219.498444,277.444275 214.981857,280.798828 
z"/>
<path fill="#FBFAFC" opacity="1.000000" stroke="none" 
	d="
M320.782654,272.266327 
	C333.030945,288.147858 326.401733,306.131012 313.865417,314.646973 
	C299.013306,324.736176 278.148712,321.220642 267.856354,307.691742 
	C255.563858,291.533722 262.920776,266.651489 286.859833,261.009644 
	C300.065674,257.897369 311.407379,261.914642 320.782654,272.266327 
M304.794098,279.687317 
	C303.714233,278.912476 302.695801,278.028442 301.544373,277.380890 
	C295.204193,273.815186 287.814423,275.327087 283.239594,281.066315 
	C278.490448,287.024231 278.698181,294.376038 283.775940,300.050537 
	C288.914307,305.792694 295.723724,306.853088 302.115417,302.906464 
	C310.374542,297.806732 311.626953,288.906708 304.794098,279.687317 
z"/>
<path fill="#FCFCFD" opacity="1.000000" stroke="none" 
	d="
M221.741196,232.756760 
	C217.543442,237.578384 214.484024,243.646927 207.014114,242.704605 
	C204.504242,242.387985 201.752991,241.527695 199.757858,240.046219 
	C193.631134,235.496887 187.790329,230.559006 181.888824,225.710800 
	C175.186356,220.204605 174.281845,213.818497 179.565475,207.008636 
	C184.541656,200.595078 189.751480,194.352936 195.064529,188.213699 
	C199.455795,183.139587 206.050659,182.666077 211.645767,187.021484 
	C218.064453,192.017960 224.380280,197.158859 230.550827,202.458237 
	C236.319870,207.412781 236.849915,213.582123 232.223694,219.672836 
	C228.915604,224.028152 225.414078,228.236526 221.741196,232.756760 
z"/>
<path fill="#FBFAFC" opacity="1.000000" stroke="none" 
	d="
M277.973389,184.799149 
	C286.821503,190.653671 288.895874,199.737381 283.640045,208.308014 
	C279.475220,215.099548 269.618225,217.457870 262.199707,213.437653 
	C254.687759,209.366776 251.468048,199.604980 255.134415,192.016464 
	C259.096771,183.815308 268.634155,180.678802 277.973389,184.799149 
z"/>
<path fill="#4E1975" opacity="1.000000" stroke="none" 
	d="
M305.051941,279.946960 
	C311.626953,288.906708 310.374542,297.806732 302.115417,302.906464 
	C295.723724,306.853088 288.914307,305.792694 283.775940,300.050537 
	C278.698181,294.376038 278.490448,287.024231 283.239594,281.066315 
	C287.814423,275.327087 295.204193,273.815186 301.544373,277.380890 
	C302.695801,278.028442 303.714233,278.912476 305.051941,279.946960 
M299.410858,290.545197 
	C299.404572,287.237610 297.235413,285.246429 294.488312,285.795715 
	C292.596527,286.173950 290.433167,288.588837 289.801971,290.548004 
	C289.448120,291.646210 291.659637,294.507568 293.258179,295.093536 
	C296.143646,296.151306 298.825958,295.119141 299.410858,290.545197 
z"/>
<path fill="#F4F0F6" opacity="1.000000" stroke="none" 
	d="
M299.396545,290.980133 
	C298.825958,295.119141 296.143646,296.151306 293.258179,295.093536 
	C291.659637,294.507568 289.448120,291.646210 289.801971,290.548004 
	C290.433167,288.588837 292.596527,286.173950 294.488312,285.795715 
	C297.235413,285.246429 299.404572,287.237610 299.396545,290.980133 
z"/>
</svg>