<?xml version="1.0" encoding="UTF-8" standalone="no"?>
<!DOCTYPE svg PUBLIC "-//W3C//DTD SVG 1.1//EN" "http://www.w3.org/Graphics/SVG/1.1/DTD/svg11.dtd">
<svg width="100%" height="100%" viewBox="0 0 791 259" version="1.1" xmlns="http://www.w3.org/2000/svg" xmlns:xlink="http://www.w3.org/1999/xlink" xml:space="preserve" xmlns:serif="http://www.serif.com/" style="fill-rule:evenodd;clip-rule:evenodd;stroke-linejoin:round;stroke-miterlimit:2;">
    <g id="Artboard1" transform="matrix(0.998633,0,0,1.00056,-4.65662,-5.35325)">
        <rect x="4.663" y="5.35" width="791.88" height="258.491" style="fill:none;"/>
        <g id="Layer_2" transform="matrix(1.00137,0,0,0.999437,305.117,126.494)">
            <g id="Path_6228" transform="matrix(4.14673,0,0,4.14673,-300,-969.708)">
                <path d="M33.392,256.987C32.745,258.708 31.09,259.855 29.252,259.855C27.413,259.855 25.758,258.708 25.111,256.987L4.991,256.987C2.253,256.987 0,259.24 0,261.978C0,264.716 2.253,266.969 4.991,266.969L44.8,266.969C51.548,266.97 57.723,263.075 60.628,256.984L33.392,256.987Z" style="fill:rgb(204,41,41);fill-rule:nonzero;"/>
            </g>
            <g id="Path_6229" transform="matrix(4.14673,0,0,4.14673,-300,-545.456)">
                <path d="M55.817,133.491C57.529,132.107 58.966,130.414 60.054,128.5L27.566,128.5C26.92,130.222 25.265,131.369 23.426,131.369C21.588,131.369 19.933,130.222 19.287,128.5L4.991,128.5C2.253,128.5 -0,130.753 0,133.491C0,136.229 2.253,138.482 4.991,138.482L37.891,138.482C38.57,136.187 40.692,134.602 43.085,134.602C45.479,134.602 47.601,136.187 48.28,138.482L60.058,138.482C58.969,136.568 57.53,134.875 55.817,133.491Z" style="fill:rgb(204,41,41);fill-rule:nonzero;"/>
            </g>
            <g id="Path_6230" transform="matrix(4.14673,0,0,4.14673,-300,-121.15)">
                <path d="M44.8,0L4.991,0C2.253,0 -0,2.253 0,4.991C0,7.729 2.253,9.982 4.991,9.982L45.8,9.982C46.479,7.687 48.601,6.102 50.994,6.102C53.388,6.102 55.51,7.687 56.189,9.982L60.634,9.982C57.727,3.89 51.55,-0.004 44.8,0Z" style="fill:rgb(204,41,41);fill-rule:nonzero;"/>
            </g>
            <g id="Path_6231" transform="matrix(4.14673,0,0,4.14673,-435.383,-757.611)">
                <path d="M94.087,192.75L80.927,192.75C80.248,195.045 78.126,196.63 75.733,196.63C73.339,196.63 71.217,195.045 70.538,192.75L45.983,192.75C43.248,192.754 41,195.006 41,197.741C41,200.479 43.253,202.732 45.991,202.732L57.767,202.732C58.414,201.011 60.069,199.864 61.908,199.864C63.746,199.864 65.401,201.011 66.048,202.732L94.415,202.732C94.793,201.281 94.984,199.788 94.983,198.289C94.985,196.406 94.682,194.536 94.087,192.75Z" style="fill:rgb(204,41,41);fill-rule:nonzero;"/>
            </g>
            <g id="Path_6232" transform="matrix(4.14673,0,0,4.14673,-435.383,-333.255)">
                <path d="M94.413,64.239L88.829,64.239C88.15,66.534 86.028,68.119 83.635,68.119C81.241,68.119 79.119,66.534 78.44,64.239L45.983,64.239C43.248,64.243 41,66.495 41,69.23C41,71.968 43.253,74.221 45.991,74.221L51.935,74.221C52.581,72.499 54.236,71.352 56.075,71.352C57.913,71.352 59.568,72.499 60.214,74.221L94.087,74.221C94.683,72.435 94.987,70.565 94.987,68.682C94.987,67.182 94.795,65.688 94.416,64.236L94.413,64.239Z" style="fill:rgb(204,41,41);fill-rule:nonzero;"/>
            </g>
            <g id="Path_6233" transform="matrix(4.14673,0,0,4.14673,-1310.41,-969.708)">
                <path d="M339.392,256.987C338.745,258.708 337.09,259.855 335.251,259.855C333.413,259.855 331.758,258.708 331.111,256.987L310.991,256.987C308.253,256.987 306,259.24 306,261.978C306,264.716 308.253,266.969 310.991,266.969L350.8,266.969C357.548,266.97 363.723,263.075 366.628,256.984L339.392,256.987Z" style="fill:rgb(54,178,54);fill-rule:nonzero;"/>
            </g>
            <g id="Path_6234" transform="matrix(4.14673,0,0,4.14673,-1310.41,-545.456)">
                <path d="M361.817,133.491C363.529,132.107 364.966,130.414 366.054,128.5L333.566,128.5C332.92,130.222 331.265,131.369 329.426,131.369C327.588,131.369 325.933,130.222 325.287,128.5L310.987,128.5C308.251,128.502 306,130.755 306,133.491C306,136.229 308.253,138.482 310.991,138.482L343.891,138.482C344.575,136.196 346.694,134.618 349.08,134.618C351.467,134.618 353.586,136.196 354.27,138.482L366.049,138.482C364.962,136.569 363.527,134.876 361.817,133.491Z" style="fill:rgb(54,178,54);fill-rule:nonzero;"/>
            </g>
            <g id="Path_6235" transform="matrix(4.14673,0,0,4.14673,-1310.41,-121.15)">
                <path d="M350.8,0L310.991,0C308.253,0 306,2.253 306,4.991C306,7.729 308.253,9.982 310.991,9.982L351.8,9.982C352.484,7.696 354.603,6.118 356.99,6.118C359.376,6.118 361.495,7.696 362.179,9.982L366.624,9.982C363.719,3.893 357.546,-0.001 350.8,-0Z" style="fill:rgb(54,178,54);fill-rule:nonzero;"/>
            </g>
            <g id="Path_6236" transform="matrix(4.14673,0,0,4.14673,-1445.66,-757.611)">
                <path d="M400.055,192.75L386.9,192.75C386.216,195.036 384.097,196.614 381.71,196.614C379.324,196.614 377.205,195.036 376.521,192.75L351.951,192.75C349.213,192.75 346.96,195.003 346.96,197.741C346.96,200.479 349.213,202.732 351.951,202.732L363.728,202.732C364.375,201.011 366.03,199.864 367.869,199.864C369.707,199.864 371.362,201.011 372.009,202.732L400.384,202.732C400.762,201.281 400.953,199.788 400.952,198.289C400.953,196.406 400.65,194.536 400.055,192.75Z" style="fill:rgb(54,178,54);fill-rule:nonzero;"/>
            </g>
            <g id="Path_6237" transform="matrix(4.14673,0,0,4.14673,-1445.79,-333.255)">
                <path d="M400.413,64.239L394.829,64.239C394.145,66.525 392.026,68.103 389.64,68.103C387.253,68.103 385.134,66.525 384.45,64.239L351.983,64.239C349.248,64.243 347,66.495 347,69.23C347,71.968 349.253,74.221 351.991,74.221L357.943,74.221C358.589,72.499 360.244,71.352 362.083,71.352C363.921,71.352 365.576,72.499 366.222,74.221L400.087,74.221C400.683,72.435 400.987,70.565 400.987,68.682C400.987,67.182 400.795,65.688 400.416,64.236L400.413,64.239Z" style="fill:rgb(54,178,54);fill-rule:nonzero;"/>
            </g>
            <g id="Path_6238" transform="matrix(4.14673,0,0,4.14673,-3228.82,-148.763)">
                <path d="M886.987,35.6C888.708,36.247 889.855,37.902 889.855,39.741C889.855,41.579 888.708,43.234 886.987,43.881L886.987,64C886.987,66.738 889.24,68.991 891.978,68.991C894.716,68.991 896.969,66.738 896.969,64L896.969,24.19C896.97,17.442 893.075,11.267 886.984,8.362L886.987,35.6Z" style="fill:rgb(0,146,204);fill-rule:nonzero;"/>
            </g>
            <g id="Path_6239" transform="matrix(4.14673,0,0,4.14673,-2804.56,-158.097)">
                <path d="M763.491,15.429C762.107,13.717 760.414,12.28 758.5,11.192L758.5,43.68C760.222,44.326 761.369,45.981 761.369,47.82C761.369,49.658 760.222,51.313 758.5,51.959L758.5,66.259C758.5,68.997 760.753,71.25 763.491,71.25C766.229,71.25 768.482,68.997 768.482,66.259L768.482,33.359C766.196,32.675 764.618,30.556 764.618,28.17C764.618,25.783 766.196,23.664 768.482,22.98L768.482,11.19C766.568,12.279 764.875,13.717 763.491,15.429Z" style="fill:rgb(0,146,204);fill-rule:nonzero;"/>
            </g>
            <g id="Path_6240" transform="matrix(4.14673,0,0,4.14673,-2380.26,-148.854)">
                <path d="M630,24.212L630,64.026C630,66.764 632.253,69.017 634.991,69.017C637.729,69.017 639.982,66.764 639.982,64.026L639.982,23.214C637.696,22.53 636.118,20.411 636.118,18.025C636.118,15.638 637.696,13.519 639.982,12.835L639.982,8.39C633.894,11.295 630,17.466 630,24.212Z" style="fill:rgb(0,146,204);fill-rule:nonzero;"/>
            </g>
            <g id="Path_6241" transform="matrix(4.14673,0,0,4.14673,-3016.72,-121.15)">
                <path d="M822.75,0.9L822.75,14.06C825.036,14.744 826.614,16.863 826.614,19.25C826.614,21.636 825.036,23.755 822.75,24.439L822.75,49C822.75,51.738 825.003,53.991 827.741,53.991C830.479,53.991 832.732,51.738 832.732,49L832.732,37.224C831.011,36.577 829.864,34.922 829.864,33.084C829.864,31.245 831.011,29.59 832.732,28.943L832.732,0.568C831.281,0.19 829.788,-0.001 828.289,-0C826.406,-0 824.536,0.304 822.75,0.9Z" style="fill:rgb(0,146,204);fill-rule:nonzero;"/>
            </g>
            <g id="Path_6242" transform="matrix(4.14673,0,0,4.14673,-2592.37,-121.15)">
                <path d="M694.239,0.57L694.239,6.154C696.525,6.838 698.103,8.957 698.103,11.343C698.103,13.73 696.525,15.849 694.239,16.533L694.239,49C694.239,51.738 696.492,53.991 699.23,53.991C701.968,53.991 704.221,51.738 704.221,49L704.221,43.048C702.499,42.402 701.352,40.747 701.352,38.909C701.352,37.07 702.499,35.415 704.221,34.769L704.221,0.9C702.435,0.304 700.565,-0 698.682,0C697.182,-0 695.688,0.192 694.236,0.571L694.239,0.57Z" style="fill:rgb(0,146,204);fill-rule:nonzero;"/>
            </g>
        </g>
    </g>
</svg>
