<?xml version="1.0" encoding="UTF-8" standalone="no"?>
<!DOCTYPE svg PUBLIC "-//W3C//DTD SVG 1.1//EN" "http://www.w3.org/Graphics/SVG/1.1/DTD/svg11.dtd">
<svg width="100%" height="100%" viewBox="0 0 68 68" version="1.1" xmlns="http://www.w3.org/2000/svg" xmlns:xlink="http://www.w3.org/1999/xlink" xml:space="preserve" xmlns:serif="http://www.serif.com/" style="fill-rule:evenodd;clip-rule:evenodd;stroke-linejoin:round;stroke-miterlimit:2;">
    <g>
        <path d="M46.883,3.383L7.265,3.383C4.54,3.383 2.297,5.624 2.297,8.349C2.297,11.074 4.54,13.316 7.265,13.316L47.878,13.316C48.554,11.032 50.666,9.454 53.048,9.454C55.43,9.454 57.542,11.032 58.218,13.316L62.641,13.316C59.749,7.253 53.601,3.377 46.883,3.383Z" style="fill:rgb(204,41,41);fill-rule:nonzero;"/>
        <path d="M63.767,16.408L58.21,16.408C57.534,18.692 55.422,20.27 53.04,20.27C50.658,20.27 48.546,18.692 47.87,16.408L15.569,16.408C12.847,16.413 10.61,18.654 10.61,21.375C10.61,24.1 12.852,26.342 15.577,26.342L21.6,26.342C22.243,24.629 23.89,23.488 25.72,23.488C27.55,23.488 29.197,24.629 29.839,26.342L63.443,26.342C64.036,24.565 64.338,22.704 64.337,20.83C64.337,19.337 64.148,17.85 63.77,16.405L63.767,16.408Z" style="fill:rgb(204,41,41);fill-rule:nonzero;"/>
        <path d="M58.419,34.403C60.122,33.025 61.553,31.34 62.635,29.436L29.823,29.436C29.18,31.149 27.533,32.291 25.703,32.291C23.873,32.291 22.226,31.149 21.583,29.436L7.832,29.436C5.108,29.438 2.869,31.679 2.869,34.403C2.869,37.128 5.111,39.37 7.836,39.37L40.578,39.37C41.26,37.094 43.368,35.526 45.743,35.526C48.118,35.526 50.227,37.094 50.908,39.37L62.63,39.37C61.549,37.466 60.121,35.781 58.419,34.403Z" style="fill:rgb(54,178,54);fill-rule:nonzero;"/>
        <path d="M36.1,55.484C35.457,57.197 33.809,58.338 31.979,58.338C30.149,58.338 28.502,57.197 27.859,55.484L7.836,55.484C5.111,55.484 2.869,57.726 2.869,60.451C2.869,63.176 5.111,65.418 7.836,65.418L47.455,65.418C54.171,65.42 60.316,61.543 63.208,55.481L36.1,55.484Z" style="fill:rgb(0,146,204);fill-rule:nonzero;"/>
        <path d="M64.007,42.458L50.91,42.458C50.229,44.733 48.12,46.303 45.745,46.303C43.37,46.303 41.262,44.733 40.58,42.458L16.136,42.458C13.412,42.458 11.17,44.7 11.17,47.425C11.17,50.15 13.412,52.392 16.136,52.392L27.857,52.392C28.5,50.679 30.147,49.538 31.977,49.538C33.807,49.538 35.455,50.679 36.098,52.392L64.336,52.392C64.713,50.948 64.904,49.462 64.903,47.97C64.903,46.096 64.6,44.235 64.007,42.458Z" style="fill:rgb(0,146,204);fill-rule:nonzero;"/>
    </g>
</svg>
