<svg version="1.1" id="Layer_1" xmlns="http://www.w3.org/2000/svg" xmlns:xlink="http://www.w3.org/1999/xlink" x="0px" y="0px"
	 width="100%" viewBox="0 0 656 624" enable-background="new 0 0 656 624" xml:space="preserve">
<path fill="#000000" opacity="1.000000" stroke="none" 
	d="
M116.903198,446.000000 
	C116.898972,414.336700 116.883736,383.173401 116.898308,352.010101 
	C116.902008,344.108673 116.945648,344.111389 125.047676,344.073547 
	C129.713730,344.051758 134.386581,343.853729 139.043610,344.045227 
	C142.690720,344.195190 144.314529,342.553253 144.377213,339.125610 
	C144.486816,333.130432 144.557251,327.133728 144.562347,321.137634 
	C144.580322,300.003448 144.620422,278.869019 144.542999,257.735107 
	C144.474030,238.911118 144.149689,220.087692 144.138168,201.263916 
	C144.123215,176.796677 144.771713,152.317413 144.145889,127.868637 
	C143.933182,119.558426 144.799133,111.869659 147.381332,104.127510 
	C151.772568,90.961426 160.652924,81.455193 171.743774,73.716934 
	C181.100983,67.188271 191.544510,64.826508 202.868088,65.600288 
	C207.161636,65.893684 211.466324,65.369225 215.782059,64.952621 
	C221.692596,64.382080 227.660156,64.613647 233.671417,65.332245 
	C240.384872,66.134789 247.254868,66.018860 254.077850,65.135895 
	C260.335876,64.326035 266.617584,64.500694 272.953888,65.262230 
	C279.868896,66.093315 286.882507,66.022179 293.858978,65.162132 
	C300.140381,64.387779 306.413849,64.437500 312.739868,65.226700 
	C319.672607,66.091583 326.677917,66.002724 333.643829,65.207993 
	C340.102844,64.471085 346.503326,64.551056 353.005035,65.270515 
	C360.085205,66.053970 367.245819,65.998116 374.399414,65.053802 
	C386.192017,63.497097 397.943329,66.276352 409.750519,65.826057 
	C411.216309,65.770172 412.389984,66.935631 413.497955,68.040077 
	C443.377136,97.825157 473.276306,127.590263 503.218750,157.311783 
	C509.943695,163.987152 516.784668,170.548904 523.690247,177.037338 
	C526.300598,179.489975 527.396118,182.167618 527.391724,185.819595 
	C527.263916,292.140106 527.013367,398.461548 527.396729,504.780640 
	C527.464722,523.635071 521.690857,539.560181 508.211060,551.833557 
	C498.981903,560.236694 487.827057,566.441589 474.233124,566.418457 
	C383.577301,566.264343 292.920685,566.130005 202.265366,566.370483 
	C173.648666,566.446411 151.138290,546.882385 144.902252,519.108032 
	C143.454025,512.657959 143.222015,505.922638 143.661560,499.262878 
	C143.906067,495.558319 142.348221,494.196808 138.692062,494.317169 
	C133.032318,494.503479 127.354362,494.181549 121.698212,494.415558 
	C117.955620,494.570343 116.774368,493.145691 116.814224,489.491089 
	C116.970497,475.162109 116.893547,460.830566 116.903198,446.000000 
M449.499939,547.645020 
	C459.599091,547.228577 469.836029,548.923401 479.774658,546.079956 
	C497.713318,540.947693 508.922729,524.815735 508.966156,504.342133 
	C509.113617,434.855499 509.525269,365.367889 509.275238,295.882690 
	C509.163727,264.888062 509.127472,233.893173 509.196655,202.899216 
	C509.205750,198.828430 507.627075,198.292648 504.200073,198.315689 
	C485.701263,198.440048 467.200806,198.303619 448.701691,198.401352 
	C434.252625,198.477707 421.124023,194.656601 409.884644,185.408020 
	C395.323090,173.425659 386.561340,158.456558 386.639801,139.056183 
	C386.706543,122.556801 386.561188,106.056046 386.718597,89.557892 
	C386.754883,85.756126 385.765594,84.286613 381.674103,84.293922 
	C321.675507,84.401154 261.676300,84.254921 201.678131,84.446342 
	C190.459152,84.482124 180.458298,88.844101 173.016205,97.376831 
	C165.194458,106.344894 162.071579,117.127365 162.093109,129.115784 
	C162.217941,198.613892 162.133789,268.112366 162.126068,337.610718 
	C162.125366,343.895355 162.263779,344.052917 168.579422,344.052582 
	C210.077881,344.050354 251.577133,343.872711 293.074463,344.081482 
	C314.366241,344.188629 335.695465,342.872650 356.945129,344.712860 
	C374.556488,346.237976 388.535522,355.385956 398.821442,369.053009 
	C416.305695,392.284546 419.851166,418.447235 410.943420,445.975555 
	C404.130249,467.030884 390.295502,482.151825 369.517426,490.269196 
	C360.169434,493.921204 350.289490,493.721039 340.270020,493.711121 
	C324.951538,493.696014 309.631927,493.272400 294.311951,493.431824 
	C275.165314,493.631073 256.017792,493.881866 236.870773,493.872528 
	C216.056458,493.862366 195.242493,493.540527 174.427979,493.429596 
	C162.340744,493.365204 162.376953,493.431671 162.338623,505.607208 
	C162.265808,528.729980 179.861984,547.793274 204.504883,547.730896 
	C285.836121,547.524963 367.168182,547.647827 449.499939,547.645020 
M406.906464,149.614395 
	C408.280029,154.675766 410.983704,159.050171 414.267761,163.020981 
	C424.129730,174.945435 437.491638,179.258118 452.327484,179.583817 
	C466.739532,179.900208 481.164368,179.640350 495.583557,179.607605 
	C496.359406,179.605850 497.305359,179.757538 497.708130,178.678650 
	C497.411316,176.873840 495.852112,175.983597 494.682617,174.892044 
	C482.434418,163.459976 471.318420,150.874130 458.744324,139.771652 
	C447.452789,129.801636 437.413452,118.551933 426.652649,108.037460 
	C424.732941,106.161720 422.846802,104.458672 419.949768,104.054092 
	C417.946808,103.774376 416.494141,102.478371 416.071472,100.142677 
	C415.055756,94.529770 410.578369,91.262833 404.273468,91.835083 
	C405.144531,110.814003 402.438782,129.938736 406.906464,149.614395 
M260.463013,381.896698 
	C255.467346,381.858215 250.464493,381.970001 245.478439,381.731018 
	C241.854187,381.557251 240.319122,382.873901 240.332291,386.582581 
	C240.408524,408.066895 240.411224,429.551849 240.321991,451.036072 
	C240.308136,454.373840 241.410538,456.016785 244.891144,455.941406 
	C252.547424,455.775635 260.254333,456.227264 267.852509,455.503052 
	C279.096222,454.431305 288.102997,449.217926 293.090149,438.613251 
	C297.336548,429.583710 297.339569,419.975830 296.062164,410.321747 
	C294.886902,401.439697 291.601715,393.670013 284.065643,388.170990 
	C277.290161,383.226898 269.566406,381.887817 260.463013,381.896698 
M214.994537,386.466980 
	C212.421799,385.344971 210.098206,383.726959 207.210068,383.242950 
	C195.958557,381.357330 184.645111,382.736450 173.365295,382.493958 
	C170.292755,382.427917 170.324097,384.985718 170.324524,387.211243 
	C170.328781,408.687958 170.416473,430.165192 170.282883,451.641022 
	C170.255814,455.994202 172.793320,455.975067 175.802979,455.925629 
	C178.808167,455.876221 182.030029,456.442474 181.909363,451.677185 
	C181.761932,445.854492 182.111160,440.015808 181.866089,434.200043 
	C181.663864,429.401001 183.131027,427.065918 188.361984,427.592865 
	C194.669556,428.228302 201.091461,427.778107 207.146820,426.195618 
	C214.851425,424.182129 221.072800,419.607300 223.186981,411.387756 
	C225.655045,401.792419 223.441589,393.389618 214.994537,386.466980 
M339.520813,390.938354 
	C345.186371,390.939484 350.853485,390.861908 356.516937,390.971588 
	C359.832275,391.035828 361.819763,390.357117 361.749176,386.304901 
	C361.683075,382.508789 359.771759,381.889618 356.710632,381.900543 
	C344.379944,381.944519 332.048187,382.003937 319.718689,381.874969 
	C315.662109,381.832520 314.227814,383.313629 314.260986,387.470764 
	C314.429993,408.631897 314.439270,429.796112 314.243561,450.956818 
	C314.204437,455.186493 316.003235,456.006531 319.616608,455.976288 
	C323.293915,455.945465 326.237793,455.817383 326.069977,450.830811 
	C325.840332,444.007111 326.159027,437.166290 326.004852,430.338196 
	C325.901001,425.740112 327.585938,423.651794 332.444641,423.867737 
	C338.930542,424.156067 345.439331,423.894714 351.937378,423.959656 
	C354.896881,423.989227 356.631012,423.139709 356.666718,419.724487 
	C356.700531,416.489227 355.776276,414.579376 352.252167,414.644135 
	C347.260406,414.735901 342.267975,414.873169 337.276123,414.862549 
	C326.039825,414.838623 325.957031,414.806305 325.987244,403.538116 
	C326.026123,389.047455 324.833893,391.133087 339.520813,390.938354 
z"/>
<path fill="#000000" opacity="1.000000" stroke="none" 
	d="
M169.029465,302.990509 
	C169.019089,289.668671 169.125793,276.842926 168.939133,264.021393 
	C168.878998,259.892212 170.348495,258.113983 174.460052,258.640015 
	C174.787628,258.681915 175.125504,258.643890 175.458603,258.642059 
	C189.994934,258.561737 189.934357,258.584961 195.198792,272.294067 
	C197.080963,277.195435 199.334473,281.954193 201.840576,287.755035 
	C205.446915,279.323395 208.742996,271.948578 211.747711,264.456940 
	C213.331863,260.507202 215.384399,258.434662 220.151093,258.522919 
	C234.370438,258.786133 234.376282,258.563538 234.374222,272.609985 
	C234.372299,285.600708 234.238113,298.593414 234.436218,311.581055 
	C234.499496,315.728638 233.545456,317.603577 228.919571,317.436493 
	C218.684586,317.066711 219.714218,318.268005 219.660385,308.365295 
	C219.609894,299.079620 219.649567,289.793457 218.727631,280.348694 
	C215.353302,287.835876 211.708511,295.217346 208.722519,302.856323 
	C207.301010,306.492950 204.862900,306.420227 202.000000,306.372009 
	C199.093079,306.323059 196.280899,306.931458 194.850433,302.879608 
	C192.481842,296.170532 189.386414,289.715546 186.521103,283.186890 
	C186.022720,282.051300 185.885223,280.556000 183.695038,279.825897 
	C183.695038,291.028595 183.627045,301.965240 183.738586,312.900024 
	C183.769958,315.974884 182.955490,317.338654 179.542770,317.416107 
	C169.003769,317.655304 169.007187,317.794220 169.030426,307.485260 
	C169.033417,306.152924 169.032059,304.820557 169.029465,302.990509 
z"/>
<path fill="#000000" opacity="1.000000" stroke="none" 
	d="
M313.029236,317.363647 
	C301.457458,317.147675 301.996185,319.215637 301.997528,307.003143 
	C301.999084,292.841492 302.120117,278.678345 301.939392,264.519043 
	C301.881531,259.987183 303.422882,258.282349 308.044312,258.579376 
	C317.482025,259.185883 326.987610,257.822815 336.405579,259.668152 
	C347.862122,261.912933 355.921448,271.015442 357.508331,282.594818 
	C358.228119,287.847260 357.980896,292.845551 356.544678,297.736664 
	C353.081543,309.530670 342.593384,317.021515 329.518066,317.335175 
	C324.189606,317.463013 318.855652,317.361359 313.029236,317.363647 
M317.770660,272.477753 
	C317.651520,282.137207 317.593079,291.798035 317.379517,301.455414 
	C317.307129,304.730164 318.640686,305.911499 321.858582,305.670502 
	C337.664856,304.486603 342.392395,296.758789 340.398773,282.511932 
	C339.082916,273.108276 324.673615,267.974854 317.770660,272.477753 
z"/>
<path fill="#000000" opacity="1.000000" stroke="none" 
	d="
M286.105377,304.890961 
	C289.935333,308.741272 293.502960,312.337585 297.356689,316.222321 
	C285.349579,319.795990 277.074829,317.082245 269.830963,307.555969 
	C268.200958,305.412384 266.374603,303.622894 263.784363,301.634766 
	C262.544769,305.532288 263.030090,309.000244 263.035706,312.372375 
	C263.041534,315.871796 261.870911,317.473511 258.076874,317.413452 
	C246.705566,317.233368 248.729202,317.853271 248.660660,308.122711 
	C248.551559,292.637115 248.800201,277.146973 248.512924,261.665863 
	C248.421600,256.745026 250.109604,254.965500 254.813782,255.624985 
	C255.793839,255.762360 256.820862,255.746689 257.806335,255.631424 
	C261.685669,255.177719 263.225983,256.850983 263.115723,260.738739 
	C262.936340,267.061462 263.026398,273.392731 263.059296,279.720093 
	C263.069366,281.654114 263.264832,283.587189 263.417419,286.255981 
	C266.910706,284.332642 269.165314,282.059723 270.978333,279.654877 
	C275.451111,273.722015 281.169037,271.549591 288.370270,272.631836 
	C290.307007,272.922882 292.348389,272.274872 294.588531,273.343536 
	C292.943451,277.150116 289.689056,279.525574 286.765747,281.964539 
	C283.425385,284.751495 280.509857,287.918427 277.370117,290.878632 
	C275.030640,293.084320 275.505585,294.617065 277.680939,296.558350 
	C280.533264,299.103729 283.134033,301.930969 286.105377,304.890961 
z"/>
<path fill="#000000" opacity="1.000000" stroke="none" 
	d="
M371.576080,313.563538 
	C362.215790,307.132233 362.527283,289.443634 366.560120,282.090424 
	C369.889801,276.019287 375.423370,272.851196 381.795471,271.966766 
	C387.622925,271.157928 393.651428,270.965179 399.517120,273.189240 
	C407.645905,276.271423 413.317780,284.078094 412.904785,292.718658 
	C412.693787,297.132965 413.190948,301.537994 411.167664,305.877014 
	C407.159424,314.472931 400.295349,317.961609 391.295074,318.389893 
	C384.364075,318.719696 377.650391,318.242523 371.576080,313.563538 
M381.984161,303.340607 
	C384.226562,305.979767 386.610840,308.039703 390.522980,306.768799 
	C394.341675,305.528229 395.830994,302.807068 396.729797,299.116730 
	C397.553406,295.735199 397.233765,292.537048 396.387268,289.363312 
	C395.343475,285.449982 392.587860,282.874481 388.544830,282.809052 
	C384.442169,282.742645 381.726135,285.405182 380.634430,289.262817 
	C379.351196,293.797211 379.225403,298.381012 381.984161,303.340607 
z"/>
<path fill="#000000" opacity="1.000000" stroke="none" 
	d="
M490.743774,306.913422 
	C494.378448,303.361542 491.949371,302.129120 488.949249,301.466919 
	C485.083252,300.613617 481.072388,300.351837 477.262573,299.322144 
	C468.596375,296.979797 465.687286,292.269043 466.689453,282.941589 
	C467.329498,276.984558 472.838043,272.040070 480.002441,271.741760 
	C486.953827,271.452362 493.943634,271.251740 500.867554,272.636597 
	C503.003754,273.063873 504.255402,273.873932 504.281372,276.097565 
	C504.314056,278.897064 504.289246,281.697205 504.289246,285.214539 
	C498.688263,284.254059 493.979095,281.913513 488.858246,282.003845 
	C488.049316,282.018097 487.122314,281.459961 486.445374,281.705444 
	C484.268860,282.494751 480.628937,281.885101 480.722412,285.279175 
	C480.800842,288.125824 484.125580,288.265015 486.196991,288.470032 
	C490.181641,288.864410 494.009613,289.866882 497.840424,290.802582 
	C504.105103,292.332703 506.875305,296.302887 507.409088,302.526947 
	C508.011292,309.548767 505.204865,314.167969 498.794281,316.550751 
	C489.139893,320.139343 479.159180,318.579010 469.315369,316.913269 
	C467.786285,316.654572 466.685577,315.506348 466.729095,313.704407 
	C466.796509,310.912231 466.177338,308.068207 467.452820,304.887817 
	C475.052155,305.931915 482.449738,310.380707 490.743774,306.913422 
z"/>
<path fill="#000000" opacity="1.000000" stroke="none" 
	d="
M443.268799,306.602814 
	C448.661407,308.177643 452.963623,305.720306 457.694214,303.825714 
	C458.916046,307.416809 458.220367,310.860413 458.205811,314.240723 
	C458.197235,316.224518 456.448456,316.578979 455.083496,316.938416 
	C444.715179,319.668579 434.695496,319.638458 425.686737,312.759430 
	C422.634613,310.428802 420.750000,307.027710 419.956177,303.571564 
	C416.098053,286.773834 421.968445,271.739075 443.309235,271.643616 
	C444.309021,271.639160 445.311829,271.595154 446.308258,271.653809 
	C460.244232,272.473938 458.929749,274.280914 457.845978,285.603943 
	C449.333405,283.508850 439.653503,278.369843 435.449951,291.472839 
	C433.179840,298.549042 435.856750,303.332794 443.268799,306.602814 
z"/>
<path fill="#000000" opacity="1.000000" stroke="none" 
	d="
M285.076233,412.270386 
	C284.406647,420.446655 286.602661,428.328766 283.256348,435.890656 
	C280.100494,443.022125 273.363098,447.440979 265.500305,447.065002 
	C264.003632,446.993469 262.502380,447.003540 261.003204,447.000580 
	C252.472076,446.983704 252.433823,446.987732 252.106247,438.699585 
	C251.553696,424.718689 253.417160,410.747589 252.235199,396.751984 
	C251.916107,392.973755 253.892120,390.841064 257.972198,390.982971 
	C261.620605,391.109863 265.369446,390.514435 268.910706,391.148956 
	C279.340729,393.017639 284.975616,400.474304 285.076233,412.270386 
z"/>
<path fill="#000000" opacity="1.000000" stroke="none" 
	d="
M181.652618,398.069763 
	C181.729004,390.697754 181.732132,390.557526 188.440567,390.707520 
	C193.887955,390.829285 199.412109,389.801056 204.771667,391.692596 
	C210.936340,393.868317 214.503922,400.607056 213.239594,407.857697 
	C212.209869,413.762939 206.785385,418.270111 200.542282,418.348785 
	C195.547958,418.411713 190.530563,418.138855 185.566345,418.542816 
	C182.540344,418.789062 181.655624,417.730774 181.666718,415.045654 
	C181.689453,409.550995 181.659958,404.056122 181.652618,398.069763 
z"/>
</svg>